ffmpeg started on 2025-06-10 at 16:57:21
Report written to "D:\Convert\FFMetrics\reports\ssim_report-6.txt"
Log level: 32
Command line:
ffmpeg -hide_banner -nostdin -i "G:\\\xc0\xed\xe8\xec\xe5\\[\xd2\xee\xef-2]\\\xd1\xe5\xec\xfc\xff \xf8\xef\xe8\xee\xed\xe0\\[\xd4\xe8\xeb\xfc\xec] \xca\xee\xe4 - \xc1\xe5\xeb\xfb\xe9\\[DC] Spy-x Family Code White 2024_Telegram_HEVC.mkv" -i "G:\\\xc0\xed\xe8\xec\xe5\\[\xd2\xee\xef-2]\\\xd1\xe5\xec\xfc\xff \xf8\xef\xe8\xee\xed\xe0\\[\xd4\xe8\xeb\xfc\xec] \xca\xee\xe4 - \xc1\xe5\xeb\xfb\xe9\\[DC] Spy-x Family Code White 2024_Telegram.mp4" -lavfi "[0:v]settb=AVTB,setpts=PTS-STARTPTS,format=pix_fmts=yuv420p10,fps=24000/1001,scale=1920:1080:flags=bicubic[main];[1:v]settb=AVTB,setpts=PTS-STARTPTS,format=pix_fmts=yuv420p,fps=24000/1001,scale=1920:1080:flags=bicubic[ref];[main][ref]ssim=eof_action=endall:stats_file='D\\:/Convert/FFMetrics/logs/ssim_logfile-6.txt'" -f null -
Input #0, matroska,webm, from 'G:\Аниме\[Топ-2]\Семья шпиона\[Фильм] Код - Белый\[DC] Spy-x Family Code White 2024_Telegram_HEVC.mkv':
  Metadata:
    COMPATIBLE_BRANDS: isomiso2avc1mp41
    MAJOR_BRAND     : isom
    MINOR_VERSION   : 512
    ENCODER         : Lavf61.7.100
  Duration: 01:50:08.60, start: -0.021000, bitrate: 1550 kb/s
  Stream #0:0: Video: hevc (Main 10), yuv420p10le(tv, bt709, progressive), 1920x1080 [SAR 1:1 DAR 16:9], 23.98 fps, 23.98 tbr, 1k tbn (default)
      Metadata:
        HANDLER_NAME    : VideoHandler
        VENDOR_ID       : [0][0][0][0]
        ENCODER         : Lavc61.19.100 libx265
        BPS             : 1352590
        DURATION        : 01:50:08.476708333
        NUMBER_OF_FRAMES: 158445
        NUMBER_OF_BYTES : 1117320121
        _STATISTICS_WRITING_APP: mkvpropedit v66.0.0 ('Josie') 64-bit
        _STATISTICS_WRITING_DATE_UTC: 2025-06-10 13:28:19
        _STATISTICS_TAGS: BPS DURATION NUMBER_OF_FRAMES NUMBER_OF_BYTES
  Stream #0:1: Audio: aac (LC), 48000 Hz, stereo, fltp (default)
      Metadata:
        HANDLER_NAME    : SoundHandler
        VENDOR_ID       : [0][0][0][0]
        ENCODER         : Lavc61.19.100 aac
        BPS             : 194156
        DURATION        : 01:50:08.597000000
        NUMBER_OF_FRAMES: 309779
        NUMBER_OF_BYTES : 160388131
        _STATISTICS_WRITING_APP: mkvpropedit v66.0.0 ('Josie') 64-bit
        _STATISTICS_WRITING_DATE_UTC: 2025-06-10 13:28:19
        _STATISTICS_TAGS: BPS DURATION NUMBER_OF_FRAMES NUMBER_OF_BYTES
Input #1, mov,mp4,m4a,3gp,3g2,mj2, from 'G:\Аниме\[Топ-2]\Семья шпиона\[Фильм] Код - Белый\[DC] Spy-x Family Code White 2024_Telegram.mp4':
  Metadata:
    major_brand     : isom
    minor_version   : 512
    compatible_brands: isomiso2avc1mp41
    encoder         : Lavf61.1.100
  Duration: 01:50:08.54, start: 0.000000, bitrate: 3830 kb/s
  Stream #1:0[0x1](und): Video: h264 (High) (avc1 / 0x31637661), yuv420p(tv, bt709, progressive), 1920x1080 [SAR 1:1 DAR 16:9], 3682 kb/s, 23.98 fps, 23.98 tbr, 24k tbn (default)
      Metadata:
        handler_name    : VideoHandler
        vendor_id       : [0][0][0][0]
        encoder         : Lavc61.3.100 h264_qsv
  Stream #1:1[0x2](und): Audio: aac (HE-AACv2) (mp4a / 0x6134706D), 48000 Hz, stereo, fltp, 144 kb/s (default)
      Metadata:
        handler_name    : SoundHandler
        vendor_id       : [0][0][0][0]
Stream mapping:
  Stream #0:0 (hevc) -> settb:default
  Stream #1:0 (h264) -> settb:default
  ssim:default -> Stream #0:0 (wrapped_avframe)
  Stream #0:1 -> #0:1 (aac (native) -> pcm_s16le (native))
Output #0, null, to 'pipe:':
  Metadata:
    COMPATIBLE_BRANDS: isomiso2avc1mp41
    MAJOR_BRAND     : isom
    MINOR_VERSION   : 512
    encoder         : Lavf61.7.100
  Stream #0:0: Video: wrapped_avframe, yuv420p10le(tv, bt709, progressive), 1920x1080 [SAR 1:1 DAR 16:9], q=2-31, 200 kb/s, 23.98 fps, 23.98 tbn
      Metadata:
        encoder         : Lavc61.19.100 wrapped_avframe
  Stream #0:1: Audio: pcm_s16le, 48000 Hz, stereo, s16, 1536 kb/s (default)
      Metadata:
        HANDLER_NAME    : SoundHandler
        VENDOR_ID       : [0][0][0][0]
        _STATISTICS_TAGS: BPS DURATION NUMBER_OF_FRAMES NUMBER_OF_BYTES
        BPS             : 194156
        DURATION        : 01:50:08.597000000
        NUMBER_OF_FRAMES: 309779
        NUMBER_OF_BYTES : 160388131
        _STATISTICS_WRITING_APP: mkvpropedit v66.0.0 ('Josie') 64-bit
        _STATISTICS_WRITING_DATE_UTC: 2025-06-10 13:28:19
        encoder         : Lavc61.19.100 pcm_s16le
frame=  189 fps=0.0 q=-0.0 size=N/A time=00:00:07.88 bitrate=N/A speed=15.4x    frame=  392 fps=377 q=-0.0 size=N/A time=00:00:16.34 bitrate=N/A speed=15.7x    frame=  648 fps=418 q=-0.0 size=N/A time=00:00:27.02 bitrate=N/A speed=17.4x    frame=  888 fps=431 q=-0.0 size=N/A time=00:00:37.03 bitrate=N/A speed=  18x    frame= 1087 fps=420 q=-0.0 size=N/A time=00:00:45.33 bitrate=N/A speed=17.5x    frame= 1292 fps=417 q=-0.0 size=N/A time=00:00:53.88 bitrate=N/A speed=17.4x    frame= 1480 fps=409 q=-0.0 size=N/A time=00:01:01.72 bitrate=N/A speed=17.1x    frame= 1656 fps=401 q=-0.0 size=N/A time=00:01:09.06 bitrate=N/A speed=16.7x    frame= 1848 fps=398 q=-0.0 size=N/A time=00:01:17.07 bitrate=N/A speed=16.6x    frame= 2066 fps=400 q=-0.0 size=N/A time=00:01:26.16 bitrate=N/A speed=16.7x    frame= 2294 fps=404 q=-0.0 size=N/A time=00:01:35.67 bitrate=N/A speed=16.9x    frame= 2523 fps=408 q=-0.0 size=N/A time=00:01:45.23 bitrate=N/A speed=  17x    frame= 2762 fps=411 q=-0.0 size=N/A time=00:01:55.19 bitrate=N/A speed=17.2x    frame= 3014 fps=417 q=-0.0 size=N/A time=00:02:05.70 bitrate=N/A speed=17.4x    frame= 3239 fps=419 q=-0.0 size=N/A time=00:02:15.09 bitrate=N/A speed=17.5x    frame= 3455 fps=419 q=-0.0 size=N/A time=00:02:24.10 bitrate=N/A speed=17.5x    frame= 3732 fps=425 q=-0.0 size=N/A time=00:02:35.65 bitrate=N/A speed=17.7x    frame= 4004 fps=431 q=-0.0 size=N/A time=00:02:47.00 bitrate=N/A speed=  18x    frame= 4261 fps=435 q=-0.0 size=N/A time=00:02:57.71 bitrate=N/A speed=18.1x    frame= 4543 fps=440 q=-0.0 size=N/A time=00:03:09.48 bitrate=N/A speed=18.4x    frame= 4821 fps=445 q=-0.0 size=N/A time=00:03:21.07 bitrate=N/A speed=18.6x    frame= 5082 fps=448 q=-0.0 size=N/A time=00:03:31.96 bitrate=N/A speed=18.7x    frame= 5372 fps=453 q=-0.0 size=N/A time=00:03:44.05 bitrate=N/A speed=18.9x    frame= 5611 fps=453 q=-0.0 size=N/A time=00:03:54.02 bitrate=N/A speed=18.9x    frame= 5882 fps=456 q=-0.0 size=N/A time=00:04:05.32 bitrate=N/A speed=  19x    frame= 6130 fps=457 q=-0.0 size=N/A time=00:04:15.67 bitrate=N/A speed=19.1x    frame= 6380 fps=458 q=-0.0 size=N/A time=00:04:26.09 bitrate=N/A speed=19.1x    frame= 6649 fps=461 q=-0.0 size=N/A time=00:04:37.31 bitrate=N/A speed=19.2x    frame= 6918 fps=463 q=-0.0 size=N/A time=00:04:48.53 bitrate=N/A speed=19.3x    frame= 7162 fps=463 q=-0.0 size=N/A time=00:04:58.71 bitrate=N/A speed=19.3x    frame= 7448 fps=466 q=-0.0 size=N/A time=00:05:10.64 bitrate=N/A speed=19.4x    frame= 7686 fps=466 q=-0.0 size=N/A time=00:05:20.57 bitrate=N/A speed=19.4x    frame= 7868 fps=462 q=-0.0 size=N/A time=00:05:28.16 bitrate=N/A speed=19.3x    frame= 8082 fps=461 q=-0.0 size=N/A time=00:05:37.08 bitrate=N/A speed=19.2x    frame= 8346 fps=462 q=-0.0 size=N/A time=00:05:48.09 bitrate=N/A speed=19.3x    frame= 8590 fps=463 q=-0.0 size=N/A time=00:05:58.27 bitrate=N/A speed=19.3x    frame= 8837 fps=463 q=-0.0 size=N/A time=00:06:08.57 bitrate=N/A speed=19.3x    frame= 9105 fps=465 q=-0.0 size=N/A time=00:06:19.75 bitrate=N/A speed=19.4x    frame= 9381 fps=466 q=-0.0 size=N/A time=00:06:31.26 bitrate=N/A speed=19.5x    frame= 9664 fps=469 q=-0.0 size=N/A time=00:06:43.06 bitrate=N/A speed=19.5x    frame= 9957 fps=471 q=-0.0 size=N/A time=00:06:55.28 bitrate=N/A speed=19.6x    frame=10208 fps=471 q=-0.0 size=N/A time=00:07:05.75 bitrate=N/A speed=19.7x    frame=10452 fps=471 q=-0.0 size=N/A time=00:07:15.93 bitrate=N/A speed=19.7x    frame=10689 fps=471 q=-0.0 size=N/A time=00:07:25.82 bitrate=N/A speed=19.6x    frame=10946 fps=472 q=-0.0 size=N/A time=00:07:36.53 bitrate=N/A speed=19.7x    frame=11159 fps=470 q=-0.0 size=N/A time=00:07:45.42 bitrate=N/A speed=19.6x    frame=11430 fps=471 q=-0.0 size=N/A time=00:07:56.72 bitrate=N/A speed=19.7x    frame=11678 fps=472 q=-0.0 size=N/A time=00:08:07.06 bitrate=N/A speed=19.7x    frame=11913 fps=472 q=-0.0 size=N/A time=00:08:16.87 bitrate=N/A speed=19.7x    frame=12198 fps=473 q=-0.0 size=N/A time=00:08:28.75 bitrate=N/A speed=19.7x    frame=12487 fps=475 q=-0.0 size=N/A time=00:08:40.81 bitrate=N/A speed=19.8x    frame=12760 fps=476 q=-0.0 size=N/A time=00:08:52.19 bitrate=N/A speed=19.8x    frame=13040 fps=477 q=-0.0 size=N/A time=00:09:03.87 bitrate=N/A speed=19.9x    frame=13321 fps=478 q=-0.0 size=N/A time=00:09:15.59 bitrate=N/A speed=  20x    frame=13600 fps=480 q=-0.0 size=N/A time=00:09:27.23 bitrate=N/A speed=  20x    frame=13871 fps=480 q=-0.0 size=N/A time=00:09:38.53 bitrate=N/A speed=  20x    frame=14138 fps=481 q=-0.0 size=N/A time=00:09:49.67 bitrate=N/A speed=  20x    frame=14363 fps=480 q=-0.0 size=N/A time=00:09:59.05 bitrate=N/A speed=  20x    frame=14618 fps=480 q=-0.0 size=N/A time=00:10:09.69 bitrate=N/A speed=  20x    frame=14854 fps=480 q=-0.0 size=N/A time=00:10:19.53 bitrate=N/A speed=  20x    frame=15074 fps=479 q=-0.0 size=N/A time=00:10:28.71 bitrate=N/A speed=  20x    frame=15314 fps=479 q=-0.0 size=N/A time=00:10:38.72 bitrate=N/A speed=  20x    frame=15561 fps=479 q=-0.0 size=N/A time=00:10:49.02 bitrate=N/A speed=  20x    frame=15820 fps=479 q=-0.0 size=N/A time=00:10:59.82 bitrate=N/A speed=  20x    frame=16086 fps=480 q=-0.0 size=N/A time=00:11:10.92 bitrate=N/A speed=  20x    frame=16352 fps=480 q=-0.0 size=N/A time=00:11:22.01 bitrate=N/A speed=  20x    frame=16568 fps=479 q=-0.0 size=N/A time=00:11:31.02 bitrate=N/A speed=  20x    frame=16820 fps=480 q=-0.0 size=N/A time=00:11:41.53 bitrate=N/A speed=  20x    frame=17067 fps=479 q=-0.0 size=N/A time=00:11:51.83 bitrate=N/A speed=  20x    frame=17325 fps=480 q=-0.0 size=N/A time=00:12:02.59 bitrate=N/A speed=  20x    frame=17598 fps=480 q=-0.0 size=N/A time=00:12:13.98 bitrate=N/A speed=  20x    frame=17868 fps=481 q=-0.0 size=N/A time=00:12:25.24 bitrate=N/A speed=20.1x    frame=18121 fps=481 q=-0.0 size=N/A time=00:12:35.79 bitrate=N/A speed=20.1x    frame=18381 fps=481 q=-0.0 size=N/A time=00:12:46.64 bitrate=N/A speed=20.1x    frame=18586 fps=480 q=-0.0 size=N/A time=00:12:55.19 bitrate=N/A speed=  20x    frame=18831 fps=480 q=-0.0 size=N/A time=00:13:05.40 bitrate=N/A speed=  20x    frame=19096 fps=481 q=-0.0 size=N/A time=00:13:16.46 bitrate=N/A speed=  20x    frame=19352 fps=481 q=-0.0 size=N/A time=00:13:27.13 bitrate=N/A speed=20.1x    frame=19635 fps=482 q=-0.0 size=N/A time=00:13:38.94 bitrate=N/A speed=20.1x    frame=19910 fps=482 q=-0.0 size=N/A time=00:13:50.41 bitrate=N/A speed=20.1x    frame=20161 fps=483 q=-0.0 size=N/A time=00:14:00.88 bitrate=N/A speed=20.1x    frame=20426 fps=483 q=-0.0 size=N/A time=00:14:11.93 bitrate=N/A speed=20.1x    frame=20694 fps=483 q=-0.0 size=N/A time=00:14:23.11 bitrate=N/A speed=20.2x    frame=20957 fps=484 q=-0.0 size=N/A time=00:14:34.08 bitrate=N/A speed=20.2x    frame=21207 fps=484 q=-0.0 size=N/A time=00:14:44.50 bitrate=N/A speed=20.2x    frame=21466 fps=484 q=-0.0 size=N/A time=00:14:55.31 bitrate=N/A speed=20.2x    frame=21749 fps=485 q=-0.0 size=N/A time=00:15:07.11 bitrate=N/A speed=20.2x    frame=22040 fps=486 q=-0.0 size=N/A time=00:15:19.25 bitrate=N/A speed=20.3x    frame=22262 fps=485 q=-0.0 size=N/A time=00:15:28.51 bitrate=N/A speed=20.2x    frame=22495 fps=485 q=-0.0 size=N/A time=00:15:38.22 bitrate=N/A speed=20.2x    frame=22716 fps=484 q=-0.0 size=N/A time=00:15:47.44 bitrate=N/A speed=20.2x    frame=22982 fps=484 q=-0.0 size=N/A time=00:15:58.54 bitrate=N/A speed=20.2x    frame=23212 fps=484 q=-0.0 size=N/A time=00:16:08.13 bitrate=N/A speed=20.2x    frame=23443 fps=484 q=-0.0 size=N/A time=00:16:17.76 bitrate=N/A speed=20.2x    frame=23668 fps=483 q=-0.0 size=N/A time=00:16:27.15 bitrate=N/A speed=20.1x    frame=23918 fps=483 q=-0.0 size=N/A time=00:16:37.57 bitrate=N/A speed=20.1x    frame=24085 fps=481 q=-0.0 size=N/A time=00:16:44.54 bitrate=N/A speed=20.1x    frame=24219 fps=479 q=-0.0 size=N/A time=00:16:50.13 bitrate=N/A speed=  20x    frame=24455 fps=479 q=-0.0 size=N/A time=00:16:59.97 bitrate=N/A speed=  20x    frame=24730 fps=480 q=-0.0 size=N/A time=00:17:11.44 bitrate=N/A speed=  20x    frame=25012 fps=480 q=-0.0 size=N/A time=00:17:23.20 bitrate=N/A speed=  20x    frame=25245 fps=480 q=-0.0 size=N/A time=00:17:32.92 bitrate=N/A speed=  20x    frame=25448 fps=479 q=-0.0 size=N/A time=00:17:41.39 bitrate=N/A speed=  20x    frame=25674 fps=479 q=-0.0 size=N/A time=00:17:50.81 bitrate=N/A speed=  20x    frame=25896 fps=478 q=-0.0 size=N/A time=00:18:00.07 bitrate=N/A speed=19.9x    frame=26171 fps=479 q=-0.0 size=N/A time=00:18:11.54 bitrate=N/A speed=  20x    frame=26431 fps=479 q=-0.0 size=N/A time=00:18:22.39 bitrate=N/A speed=  20x    frame=26667 fps=479 q=-0.0 size=N/A time=00:18:32.23 bitrate=N/A speed=  20x    frame=26925 fps=479 q=-0.0 size=N/A time=00:18:42.99 bitrate=N/A speed=  20x    frame=27197 fps=479 q=-0.0 size=N/A time=00:18:54.34 bitrate=N/A speed=  20x    frame=27410 fps=479 q=-0.0 size=N/A time=00:19:03.22 bitrate=N/A speed=  20x    frame=27624 fps=478 q=-0.0 size=N/A time=00:19:12.15 bitrate=N/A speed=19.9x    frame=27872 fps=478 q=-0.0 size=N/A time=00:19:22.49 bitrate=N/A speed=19.9x    frame=28128 fps=478 q=-0.0 size=N/A time=00:19:33.17 bitrate=N/A speed=  20x    frame=28406 fps=479 q=-0.0 size=N/A time=00:19:44.76 bitrate=N/A speed=  20x    frame=28676 fps=479 q=-0.0 size=N/A time=00:19:56.02 bitrate=N/A speed=  20x    frame=28923 fps=479 q=-0.0 size=N/A time=00:20:06.33 bitrate=N/A speed=  20x    frame=29195 fps=480 q=-0.0 size=N/A time=00:20:17.67 bitrate=N/A speed=  20x    frame=29438 fps=480 q=-0.0 size=N/A time=00:20:27.80 bitrate=N/A speed=  20x    frame=29680 fps=479 q=-0.0 size=N/A time=00:20:37.90 bitrate=N/A speed=  20x    frame=29949 fps=480 q=-0.0 size=N/A time=00:20:49.12 bitrate=N/A speed=  20x    frame=30202 fps=480 q=-0.0 size=N/A time=00:20:59.67 bitrate=N/A speed=  20x    frame=30480 fps=480 q=-0.0 size=N/A time=00:21:11.27 bitrate=N/A speed=  20x    frame=30755 fps=481 q=-0.0 size=N/A time=00:21:22.73 bitrate=N/A speed=20.1x    frame=31012 fps=481 q=-0.0 size=N/A time=00:21:33.45 bitrate=N/A speed=20.1x    frame=31223 fps=480 q=-0.0 size=N/A time=00:21:42.25 bitrate=N/A speed=  20x    frame=31447 fps=480 q=-0.0 size=N/A time=00:21:51.60 bitrate=N/A speed=  20x    frame=31685 fps=480 q=-0.0 size=N/A time=00:22:01.52 bitrate=N/A speed=  20x    frame=31981 fps=481 q=-0.0 size=N/A time=00:22:13.87 bitrate=N/A speed=  20x    frame=32233 fps=481 q=-0.0 size=N/A time=00:22:24.38 bitrate=N/A speed=  20x    frame=32491 fps=481 q=-0.0 size=N/A time=00:22:35.14 bitrate=N/A speed=20.1x    frame=32740 fps=481 q=-0.0 size=N/A time=00:22:45.53 bitrate=N/A speed=20.1x    frame=33001 fps=481 q=-0.0 size=N/A time=00:22:56.41 bitrate=N/A speed=20.1x    frame=33240 fps=481 q=-0.0 size=N/A time=00:23:06.38 bitrate=N/A speed=20.1x    frame=33490 fps=481 q=-0.0 size=N/A time=00:23:16.81 bitrate=N/A speed=20.1x    frame=33724 fps=481 q=-0.0 size=N/A time=00:23:26.57 bitrate=N/A speed=  20x    frame=33975 fps=481 q=-0.0 size=N/A time=00:23:37.04 bitrate=N/A speed=20.1x    frame=34215 fps=481 q=-0.0 size=N/A time=00:23:47.05 bitrate=N/A speed=  20x    frame=34452 fps=480 q=-0.0 size=N/A time=00:23:56.93 bitrate=N/A speed=  20x    frame=34701 fps=480 q=-0.0 size=N/A time=00:24:07.32 bitrate=N/A speed=  20x    frame=34947 fps=480 q=-0.0 size=N/A time=00:24:17.58 bitrate=N/A speed=  20x    frame=35202 fps=481 q=-0.0 size=N/A time=00:24:28.21 bitrate=N/A speed=  20x    frame=35399 fps=480 q=-0.0 size=N/A time=00:24:36.43 bitrate=N/A speed=  20x    frame=35601 fps=479 q=-0.0 size=N/A time=00:24:44.85 bitrate=N/A speed=  20x    frame=35815 fps=479 q=-0.0 size=N/A time=00:24:53.78 bitrate=N/A speed=  20x    frame=36066 fps=479 q=-0.0 size=N/A time=00:25:04.25 bitrate=N/A speed=  20x    frame=36324 fps=479 q=-0.0 size=N/A time=00:25:15.01 bitrate=N/A speed=  20x    frame=36530 fps=478 q=-0.0 size=N/A time=00:25:23.60 bitrate=N/A speed=  20x    frame=36768 fps=478 q=-0.0 size=N/A time=00:25:33.53 bitrate=N/A speed=  20x    frame=36982 fps=478 q=-0.0 size=N/A time=00:25:42.45 bitrate=N/A speed=19.9x    frame=37230 fps=478 q=-0.0 size=N/A time=00:25:52.80 bitrate=N/A speed=19.9x    frame=37487 fps=478 q=-0.0 size=N/A time=00:26:03.52 bitrate=N/A speed=19.9x    frame=37740 fps=478 q=-0.0 size=N/A time=00:26:14.07 bitrate=N/A speed=19.9x    frame=37978 fps=478 q=-0.0 size=N/A time=00:26:23.99 bitrate=N/A speed=19.9x    frame=38188 fps=478 q=-0.0 size=N/A time=00:26:32.75 bitrate=N/A speed=19.9x    frame=38448 fps=478 q=-0.0 size=N/A time=00:26:43.60 bitrate=N/A speed=19.9x    frame=38702 fps=478 q=-0.0 size=N/A time=00:26:54.19 bitrate=N/A speed=19.9x    frame=38961 fps=478 q=-0.0 size=N/A time=00:27:04.99 bitrate=N/A speed=19.9x    frame=39223 fps=478 q=-0.0 size=N/A time=00:27:15.92 bitrate=N/A speed=19.9x    frame=39477 fps=478 q=-0.0 size=N/A time=00:27:26.51 bitrate=N/A speed=19.9x    frame=39719 fps=478 q=-0.0 size=N/A time=00:27:36.61 bitrate=N/A speed=19.9x    frame=39989 fps=478 q=-0.0 size=N/A time=00:27:47.87 bitrate=N/A speed=  20x    frame=40271 fps=479 q=-0.0 size=N/A time=00:27:59.63 bitrate=N/A speed=  20x    frame=40511 fps=479 q=-0.0 size=N/A time=00:28:09.64 bitrate=N/A speed=  20x    frame=40810 fps=479 q=-0.0 size=N/A time=00:28:22.11 bitrate=N/A speed=  20x    frame=41092 fps=480 q=-0.0 size=N/A time=00:28:33.87 bitrate=N/A speed=  20x    frame=41391 fps=480 q=-0.0 size=N/A time=00:28:46.34 bitrate=N/A speed=  20x    frame=41635 fps=480 q=-0.0 size=N/A time=00:28:56.52 bitrate=N/A speed=  20x    frame=41837 fps=480 q=-0.0 size=N/A time=00:29:04.95 bitrate=N/A speed=  20x    frame=42082 fps=480 q=-0.0 size=N/A time=00:29:15.17 bitrate=N/A speed=  20x    frame=42341 fps=480 q=-0.0 size=N/A time=00:29:25.97 bitrate=N/A speed=  20x    frame=42598 fps=480 q=-0.0 size=N/A time=00:29:36.69 bitrate=N/A speed=  20x    frame=42877 fps=480 q=-0.0 size=N/A time=00:29:48.32 bitrate=N/A speed=  20x    frame=43089 fps=480 q=-0.0 size=N/A time=00:29:57.17 bitrate=N/A speed=  20x    frame=43335 fps=480 q=-0.0 size=N/A time=00:30:07.43 bitrate=N/A speed=  20x    frame=43561 fps=480 q=-0.0 size=N/A time=00:30:16.85 bitrate=N/A speed=  20x    frame=43832 fps=480 q=-0.0 size=N/A time=00:30:28.15 bitrate=N/A speed=  20x    frame=44083 fps=480 q=-0.0 size=N/A time=00:30:38.62 bitrate=N/A speed=  20x    frame=44352 fps=480 q=-0.0 size=N/A time=00:30:49.84 bitrate=N/A speed=  20x    frame=44619 fps=480 q=-0.0 size=N/A time=00:31:00.98 bitrate=N/A speed=  20x    frame=44896 fps=481 q=-0.0 size=N/A time=00:31:12.53 bitrate=N/A speed=20.1x    frame=45188 fps=481 q=-0.0 size=N/A time=00:31:24.71 bitrate=N/A speed=20.1x    frame=45457 fps=481 q=-0.0 size=N/A time=00:31:35.93 bitrate=N/A speed=20.1x    frame=45681 fps=481 q=-0.0 size=N/A time=00:31:45.27 bitrate=N/A speed=20.1x    frame=45960 fps=482 q=-0.0 size=N/A time=00:31:56.91 bitrate=N/A speed=20.1x    frame=46225 fps=482 q=-0.0 size=N/A time=00:32:07.96 bitrate=N/A speed=20.1x    frame=46480 fps=482 q=-0.0 size=N/A time=00:32:18.60 bitrate=N/A speed=20.1x    frame=46697 fps=481 q=-0.0 size=N/A time=00:32:27.65 bitrate=N/A speed=20.1x    frame=46944 fps=481 q=-0.0 size=N/A time=00:32:37.95 bitrate=N/A speed=20.1x    frame=47196 fps=482 q=-0.0 size=N/A time=00:32:48.46 bitrate=N/A speed=20.1x    frame=47462 fps=482 q=-0.0 size=N/A time=00:32:59.56 bitrate=N/A speed=20.1x    frame=47705 fps=482 q=-0.0 size=N/A time=00:33:09.69 bitrate=N/A speed=20.1x    frame=47981 fps=482 q=-0.0 size=N/A time=00:33:21.20 bitrate=N/A speed=20.1x    frame=48233 fps=482 q=-0.0 size=N/A time=00:33:31.71 bitrate=N/A speed=20.1x    frame=48527 fps=482 q=-0.0 size=N/A time=00:33:43.98 bitrate=N/A speed=20.1x    frame=48799 fps=483 q=-0.0 size=N/A time=00:33:55.32 bitrate=N/A speed=20.1x    frame=49068 fps=483 q=-0.0 size=N/A time=00:34:06.54 bitrate=N/A speed=20.1x    frame=49293 fps=483 q=-0.0 size=N/A time=00:34:15.92 bitrate=N/A speed=20.1x    frame=49552 fps=483 q=-0.0 size=N/A time=00:34:26.73 bitrate=N/A speed=20.1x    frame=49798 fps=483 q=-0.0 size=N/A time=00:34:36.99 bitrate=N/A speed=20.1x    frame=49990 fps=482 q=-0.0 size=N/A time=00:34:44.99 bitrate=N/A speed=20.1x    frame=50241 fps=482 q=-0.0 size=N/A time=00:34:55.46 bitrate=N/A speed=20.1x    frame=50446 fps=482 q=-0.0 size=N/A time=00:35:04.01 bitrate=N/A speed=20.1x    frame=50664 fps=481 q=-0.0 size=N/A time=00:35:13.11 bitrate=N/A speed=20.1x    frame=50885 fps=481 q=-0.0 size=N/A time=00:35:22.32 bitrate=N/A speed=20.1x    frame=51140 fps=481 q=-0.0 size=N/A time=00:35:32.96 bitrate=N/A speed=20.1x    frame=51376 fps=481 q=-0.0 size=N/A time=00:35:42.80 bitrate=N/A speed=20.1x    frame=51638 fps=481 q=-0.0 size=N/A time=00:35:53.73 bitrate=N/A speed=20.1x    frame=51875 fps=481 q=-0.0 size=N/A time=00:36:03.61 bitrate=N/A speed=20.1x    frame=52162 fps=481 q=-0.0 size=N/A time=00:36:15.59 bitrate=N/A speed=20.1x    frame=52426 fps=482 q=-0.0 size=N/A time=00:36:26.60 bitrate=N/A speed=20.1x    frame=52674 fps=482 q=-0.0 size=N/A time=00:36:36.94 bitrate=N/A speed=20.1x    frame=52895 fps=481 q=-0.0 size=N/A time=00:36:46.16 bitrate=N/A speed=20.1x    frame=53116 fps=481 q=-0.0 size=N/A time=00:36:55.37 bitrate=N/A speed=20.1x    frame=53325 fps=481 q=-0.0 size=N/A time=00:37:04.09 bitrate=N/A speed=20.1x    frame=53513 fps=480 q=-0.0 size=N/A time=00:37:11.93 bitrate=N/A speed=  20x    frame=53729 fps=480 q=-0.0 size=N/A time=00:37:20.94 bitrate=N/A speed=  20x    frame=53945 fps=480 q=-0.0 size=N/A time=00:37:29.95 bitrate=N/A speed=  20x    frame=54211 fps=480 q=-0.0 size=N/A time=00:37:41.05 bitrate=N/A speed=  20x    frame=54478 fps=480 q=-0.0 size=N/A time=00:37:52.18 bitrate=N/A speed=  20x    frame=54732 fps=480 q=-0.0 size=N/A time=00:38:02.78 bitrate=N/A speed=  20x    frame=54972 fps=480 q=-0.0 size=N/A time=00:38:12.79 bitrate=N/A speed=  20x    frame=55210 fps=480 q=-0.0 size=N/A time=00:38:22.71 bitrate=N/A speed=  20x    frame=55460 fps=480 q=-0.0 size=N/A time=00:38:33.14 bitrate=N/A speed=  20x    frame=55724 fps=480 q=-0.0 size=N/A time=00:38:44.15 bitrate=N/A speed=  20x    frame=55977 fps=480 q=-0.0 size=N/A time=00:38:54.70 bitrate=N/A speed=  20x    frame=56223 fps=480 q=-0.0 size=N/A time=00:39:04.96 bitrate=N/A speed=  20x    frame=56511 fps=480 q=-0.0 size=N/A time=00:39:16.97 bitrate=N/A speed=  20x    frame=56735 fps=480 q=-0.0 size=N/A time=00:39:26.32 bitrate=N/A speed=  20x    frame=56975 fps=480 q=-0.0 size=N/A time=00:39:36.33 bitrate=N/A speed=  20x    frame=57247 fps=480 q=-0.0 size=N/A time=00:39:47.67 bitrate=N/A speed=  20x    frame=57477 fps=480 q=-0.0 size=N/A time=00:39:57.26 bitrate=N/A speed=  20x    frame=57676 fps=480 q=-0.0 size=N/A time=00:40:05.56 bitrate=N/A speed=  20x    frame=57953 fps=480 q=-0.0 size=N/A time=00:40:17.12 bitrate=N/A speed=  20x    frame=58186 fps=480 q=-0.0 size=N/A time=00:40:26.84 bitrate=N/A speed=  20x    frame=58451 fps=480 q=-0.0 size=N/A time=00:40:37.89 bitrate=N/A speed=  20x    frame=58702 fps=480 q=-0.0 size=N/A time=00:40:48.36 bitrate=N/A speed=  20x    frame=58939 fps=480 q=-0.0 size=N/A time=00:40:58.24 bitrate=N/A speed=  20x    frame=59161 fps=480 q=-0.0 size=N/A time=00:41:07.50 bitrate=N/A speed=  20x    frame=59404 fps=480 q=-0.0 size=N/A time=00:41:17.64 bitrate=N/A speed=  20x    frame=59601 fps=479 q=-0.0 size=N/A time=00:41:25.85 bitrate=N/A speed=  20x    frame=59818 fps=479 q=-0.0 size=N/A time=00:41:34.90 bitrate=N/A speed=  20x    frame=60072 fps=479 q=-0.0 size=N/A time=00:41:45.50 bitrate=N/A speed=  20x    frame=60323 fps=479 q=-0.0 size=N/A time=00:41:55.97 bitrate=N/A speed=  20x    frame=60557 fps=479 q=-0.0 size=N/A time=00:42:05.73 bitrate=N/A speed=  20x    frame=60776 fps=479 q=-0.0 size=N/A time=00:42:14.86 bitrate=N/A speed=  20x    frame=60991 fps=479 q=-0.0 size=N/A time=00:42:23.83 bitrate=N/A speed=  20x    frame=61217 fps=478 q=-0.0 size=N/A time=00:42:33.25 bitrate=N/A speed=  20x    frame=61446 fps=478 q=-0.0 size=N/A time=00:42:42.81 bitrate=N/A speed=  20x    frame=61663 fps=478 q=-0.0 size=N/A time=00:42:51.86 bitrate=N/A speed=19.9x    frame=61905 fps=478 q=-0.0 size=N/A time=00:43:01.95 bitrate=N/A speed=19.9x    frame=62182 fps=478 q=-0.0 size=N/A time=00:43:13.50 bitrate=N/A speed=  20x    frame=62398 fps=478 q=-0.0 size=N/A time=00:43:22.51 bitrate=N/A speed=19.9x    frame=62666 fps=478 q=-0.0 size=N/A time=00:43:33.69 bitrate=N/A speed=19.9x    frame=62914 fps=478 q=-0.0 size=N/A time=00:43:44.03 bitrate=N/A speed=19.9x    frame=63186 fps=478 q=-0.0 size=N/A time=00:43:55.38 bitrate=N/A speed=  20x    frame=63443 fps=479 q=-0.0 size=N/A time=00:44:06.10 bitrate=N/A speed=  20x    frame=63701 fps=479 q=-0.0 size=N/A time=00:44:16.86 bitrate=N/A speed=  20x    frame=63944 fps=479 q=-0.0 size=N/A time=00:44:26.99 bitrate=N/A speed=  20x    frame=64207 fps=479 q=-0.0 size=N/A time=00:44:37.96 bitrate=N/A speed=  20x    frame=64460 fps=479 q=-0.0 size=N/A time=00:44:48.51 bitrate=N/A speed=  20x    frame=64726 fps=479 q=-0.0 size=N/A time=00:44:59.61 bitrate=N/A speed=  20x    frame=64971 fps=479 q=-0.0 size=N/A time=00:45:09.83 bitrate=N/A speed=  20x    frame=65161 fps=478 q=-0.0 size=N/A time=00:45:17.75 bitrate=N/A speed=  20x    frame=65370 fps=478 q=-0.0 size=N/A time=00:45:26.47 bitrate=N/A speed=19.9x    frame=65624 fps=478 q=-0.0 size=N/A time=00:45:37.06 bitrate=N/A speed=19.9x    frame=65867 fps=478 q=-0.0 size=N/A time=00:45:47.20 bitrate=N/A speed=19.9x    frame=66094 fps=478 q=-0.0 size=N/A time=00:45:56.67 bitrate=N/A speed=19.9x    frame=66365 fps=478 q=-0.0 size=N/A time=00:46:07.97 bitrate=N/A speed=19.9x    frame=66614 fps=478 q=-0.0 size=N/A time=00:46:18.35 bitrate=N/A speed=19.9x    frame=66843 fps=478 q=-0.0 size=N/A time=00:46:27.91 bitrate=N/A speed=19.9x    frame=67086 fps=478 q=-0.0 size=N/A time=00:46:38.04 bitrate=N/A speed=19.9x    frame=67300 fps=478 q=-0.0 size=N/A time=00:46:46.97 bitrate=N/A speed=19.9x    frame=67504 fps=478 q=-0.0 size=N/A time=00:46:55.47 bitrate=N/A speed=19.9x    frame=67719 fps=477 q=-0.0 size=N/A time=00:47:04.44 bitrate=N/A speed=19.9x    frame=67983 fps=477 q=-0.0 size=N/A time=00:47:15.45 bitrate=N/A speed=19.9x    frame=68258 fps=478 q=-0.0 size=N/A time=00:47:26.92 bitrate=N/A speed=19.9x    frame=68527 fps=478 q=-0.0 size=N/A time=00:47:38.14 bitrate=N/A speed=19.9x    frame=68763 fps=478 q=-0.0 size=N/A time=00:47:47.99 bitrate=N/A speed=19.9x    frame=69049 fps=478 q=-0.0 size=N/A time=00:47:59.91 bitrate=N/A speed=19.9x    frame=69340 fps=478 q=-0.0 size=N/A time=00:48:12.05 bitrate=N/A speed=  20x    frame=69633 fps=479 q=-0.0 size=N/A time=00:48:24.27 bitrate=N/A speed=  20x    frame=69865 fps=479 q=-0.0 size=N/A time=00:48:33.95 bitrate=N/A speed=  20x    frame=70114 fps=479 q=-0.0 size=N/A time=00:48:44.33 bitrate=N/A speed=  20x    frame=70341 fps=478 q=-0.0 size=N/A time=00:48:53.80 bitrate=N/A speed=  20x    frame=70579 fps=478 q=-0.0 size=N/A time=00:49:03.73 bitrate=N/A speed=  20x    frame=70802 fps=478 q=-0.0 size=N/A time=00:49:13.03 bitrate=N/A speed=19.9x    frame=71058 fps=478 q=-0.0 size=N/A time=00:49:23.71 bitrate=N/A speed=19.9x    frame=71291 fps=478 q=-0.0 size=N/A time=00:49:33.42 bitrate=N/A speed=19.9x    frame=71532 fps=478 q=-0.0 size=N/A time=00:49:43.48 bitrate=N/A speed=19.9x    frame=71768 fps=478 q=-0.0 size=N/A time=00:49:53.32 bitrate=N/A speed=19.9x    frame=72022 fps=478 q=-0.0 size=N/A time=00:50:03.91 bitrate=N/A speed=19.9x    frame=72245 fps=478 q=-0.0 size=N/A time=00:50:13.21 bitrate=N/A speed=19.9x    frame=72488 fps=478 q=-0.0 size=N/A time=00:50:23.39 bitrate=N/A speed=19.9x    frame=72720 fps=478 q=-0.0 size=N/A time=00:50:33.03 bitrate=N/A speed=19.9x    frame=72932 fps=478 q=-0.0 size=N/A time=00:50:41.87 bitrate=N/A speed=19.9x    frame=73185 fps=478 q=-0.0 size=N/A time=00:50:52.42 bitrate=N/A speed=19.9x    frame=73465 fps=478 q=-0.0 size=N/A time=00:51:04.10 bitrate=N/A speed=19.9x    frame=73749 fps=478 q=-0.0 size=N/A time=00:51:15.94 bitrate=N/A speed=19.9x    frame=74038 fps=478 q=-0.0 size=N/A time=00:51:28.00 bitrate=N/A speed=  20x    frame=74274 fps=478 q=-0.0 size=N/A time=00:51:37.84 bitrate=N/A speed=  20x    frame=74539 fps=478 q=-0.0 size=N/A time=00:51:48.89 bitrate=N/A speed=  20x    frame=74784 fps=478 q=-0.0 size=N/A time=00:51:59.11 bitrate=N/A speed=  20x    frame=75021 fps=478 q=-0.0 size=N/A time=00:52:09.00 bitrate=N/A speed=  20x    frame=75266 fps=478 q=-0.0 size=N/A time=00:52:19.21 bitrate=N/A speed=  20x    frame=75525 fps=478 q=-0.0 size=N/A time=00:52:30.02 bitrate=N/A speed=  20x    frame=75789 fps=479 q=-0.0 size=N/A time=00:52:41.03 bitrate=N/A speed=  20x    frame=76019 fps=478 q=-0.0 size=N/A time=00:52:50.62 bitrate=N/A speed=  20x    frame=76278 fps=479 q=-0.0 size=N/A time=00:53:01.42 bitrate=N/A speed=  20x    frame=76534 fps=479 q=-0.0 size=N/A time=00:53:12.10 bitrate=N/A speed=  20x    frame=76790 fps=479 q=-0.0 size=N/A time=00:53:22.78 bitrate=N/A speed=  20x    frame=77067 fps=479 q=-0.0 size=N/A time=00:53:34.33 bitrate=N/A speed=  20x    frame=77321 fps=479 q=-0.0 size=N/A time=00:53:44.93 bitrate=N/A speed=  20x    frame=77570 fps=479 q=-0.0 size=N/A time=00:53:55.31 bitrate=N/A speed=  20x    frame=77839 fps=479 q=-0.0 size=N/A time=00:54:06.53 bitrate=N/A speed=  20x    frame=78080 fps=479 q=-0.0 size=N/A time=00:54:16.58 bitrate=N/A speed=  20x    frame=78260 fps=479 q=-0.0 size=N/A time=00:54:24.09 bitrate=N/A speed=  20x    frame=78489 fps=478 q=-0.0 size=N/A time=00:54:33.64 bitrate=N/A speed=  20x    frame=78763 fps=479 q=-0.0 size=N/A time=00:54:45.07 bitrate=N/A speed=  20x    frame=79012 fps=479 q=-0.0 size=N/A time=00:54:55.45 bitrate=N/A speed=  20x    frame=79261 fps=479 q=-0.0 size=N/A time=00:55:05.84 bitrate=N/A speed=  20x    frame=79524 fps=479 q=-0.0 size=N/A time=00:55:16.81 bitrate=N/A speed=  20x    frame=79768 fps=479 q=-0.0 size=N/A time=00:55:26.99 bitrate=N/A speed=  20x    frame=79999 fps=479 q=-0.0 size=N/A time=00:55:36.62 bitrate=N/A speed=  20x    frame=80216 fps=478 q=-0.0 size=N/A time=00:55:45.67 bitrate=N/A speed=  20x    frame=80435 fps=478 q=-0.0 size=N/A time=00:55:54.80 bitrate=N/A speed=  20x    frame=80709 fps=479 q=-0.0 size=N/A time=00:56:06.23 bitrate=N/A speed=  20x    frame=80972 fps=479 q=-0.0 size=N/A time=00:56:17.20 bitrate=N/A speed=  20x    frame=81224 fps=479 q=-0.0 size=N/A time=00:56:27.71 bitrate=N/A speed=  20x    frame=81474 fps=479 q=-0.0 size=N/A time=00:56:38.14 bitrate=N/A speed=  20x    frame=81721 fps=479 q=-0.0 size=N/A time=00:56:48.44 bitrate=N/A speed=  20x    frame=81981 fps=479 q=-0.0 size=N/A time=00:56:59.29 bitrate=N/A speed=  20x    frame=82197 fps=479 q=-0.0 size=N/A time=00:57:08.29 bitrate=N/A speed=  20x    frame=82465 fps=479 q=-0.0 size=N/A time=00:57:19.47 bitrate=N/A speed=  20x    frame=82717 fps=479 q=-0.0 size=N/A time=00:57:29.98 bitrate=N/A speed=  20x    frame=83000 fps=479 q=-0.0 size=N/A time=00:57:41.79 bitrate=N/A speed=  20x    frame=83240 fps=479 q=-0.0 size=N/A time=00:57:51.80 bitrate=N/A speed=  20x    frame=83458 fps=479 q=-0.0 size=N/A time=00:58:00.89 bitrate=N/A speed=  20x    frame=83652 fps=478 q=-0.0 size=N/A time=00:58:08.98 bitrate=N/A speed=  20x    frame=83853 fps=478 q=-0.0 size=N/A time=00:58:17.36 bitrate=N/A speed=19.9x    frame=84077 fps=478 q=-0.0 size=N/A time=00:58:26.71 bitrate=N/A speed=19.9x    frame=84334 fps=478 q=-0.0 size=N/A time=00:58:37.43 bitrate=N/A speed=19.9x    frame=84574 fps=478 q=-0.0 size=N/A time=00:58:47.44 bitrate=N/A speed=19.9x    frame=84807 fps=478 q=-0.0 size=N/A time=00:58:57.15 bitrate=N/A speed=19.9x    frame=85034 fps=478 q=-0.0 size=N/A time=00:59:06.62 bitrate=N/A speed=19.9x    frame=85228 fps=478 q=-0.0 size=N/A time=00:59:14.71 bitrate=N/A speed=19.9x    frame=85429 fps=477 q=-0.0 size=N/A time=00:59:23.10 bitrate=N/A speed=19.9x    frame=85669 fps=477 q=-0.0 size=N/A time=00:59:33.11 bitrate=N/A speed=19.9x    frame=85902 fps=477 q=-0.0 size=N/A time=00:59:42.82 bitrate=N/A speed=19.9x    frame=86133 fps=477 q=-0.0 size=N/A time=00:59:52.46 bitrate=N/A speed=19.9x    frame=86369 fps=477 q=-0.0 size=N/A time=01:00:02.30 bitrate=N/A speed=19.9x    frame=86584 fps=477 q=-0.0 size=N/A time=01:00:11.27 bitrate=N/A speed=19.9x    frame=86790 fps=477 q=-0.0 size=N/A time=01:00:19.86 bitrate=N/A speed=19.9x    frame=87025 fps=477 q=-0.0 size=N/A time=01:00:29.66 bitrate=N/A speed=19.9x    frame=87267 fps=477 q=-0.0 size=N/A time=01:00:39.76 bitrate=N/A speed=19.9x    frame=87506 fps=477 q=-0.0 size=N/A time=01:00:49.72 bitrate=N/A speed=19.9x    frame=87774 fps=477 q=-0.0 size=N/A time=01:01:00.90 bitrate=N/A speed=19.9x    frame=88047 fps=477 q=-0.0 size=N/A time=01:01:12.29 bitrate=N/A speed=19.9x    frame=88315 fps=477 q=-0.0 size=N/A time=01:01:23.47 bitrate=N/A speed=19.9x    frame=88572 fps=477 q=-0.0 size=N/A time=01:01:34.19 bitrate=N/A speed=19.9x    frame=88800 fps=477 q=-0.0 size=N/A time=01:01:43.70 bitrate=N/A speed=19.9x    frame=89050 fps=477 q=-0.0 size=N/A time=01:01:54.12 bitrate=N/A speed=19.9x    frame=89323 fps=477 q=-0.0 size=N/A time=01:02:05.51 bitrate=N/A speed=19.9x    frame=89544 fps=477 q=-0.0 size=N/A time=01:02:14.73 bitrate=N/A speed=19.9x    frame=89733 fps=477 q=-0.0 size=N/A time=01:02:22.61 bitrate=N/A speed=19.9x    frame=90013 fps=477 q=-0.0 size=N/A time=01:02:34.29 bitrate=N/A speed=19.9x    frame=90228 fps=477 q=-0.0 size=N/A time=01:02:43.25 bitrate=N/A speed=19.9x    frame=90489 fps=477 q=-0.0 size=N/A time=01:02:54.14 bitrate=N/A speed=19.9x    frame=90768 fps=477 q=-0.0 size=N/A time=01:03:05.78 bitrate=N/A speed=19.9x    frame=91000 fps=477 q=-0.0 size=N/A time=01:03:15.45 bitrate=N/A speed=19.9x    frame=91257 fps=477 q=-0.0 size=N/A time=01:03:26.17 bitrate=N/A speed=19.9x    frame=91480 fps=477 q=-0.0 size=N/A time=01:03:35.47 bitrate=N/A speed=19.9x    frame=91739 fps=477 q=-0.0 size=N/A time=01:03:46.28 bitrate=N/A speed=19.9x    frame=91981 fps=477 q=-0.0 size=N/A time=01:03:56.37 bitrate=N/A speed=19.9x    frame=92200 fps=477 q=-0.0 size=N/A time=01:04:05.50 bitrate=N/A speed=19.9x    frame=92425 fps=476 q=-0.0 size=N/A time=01:04:14.89 bitrate=N/A speed=19.9x    frame=92639 fps=476 q=-0.0 size=N/A time=01:04:23.81 bitrate=N/A speed=19.9x    frame=92853 fps=476 q=-0.0 size=N/A time=01:04:32.74 bitrate=N/A speed=19.9x    frame=93103 fps=476 q=-0.0 size=N/A time=01:04:43.17 bitrate=N/A speed=19.9x    frame=93345 fps=476 q=-0.0 size=N/A time=01:04:53.26 bitrate=N/A speed=19.9x    frame=93590 fps=476 q=-0.0 size=N/A time=01:05:03.48 bitrate=N/A speed=19.9x    frame=93830 fps=476 q=-0.0 size=N/A time=01:05:13.49 bitrate=N/A speed=19.9x    frame=94050 fps=476 q=-0.0 size=N/A time=01:05:22.66 bitrate=N/A speed=19.9x    frame=94294 fps=476 q=-0.0 size=N/A time=01:05:32.84 bitrate=N/A speed=19.9x    frame=94511 fps=476 q=-0.0 size=N/A time=01:05:41.89 bitrate=N/A speed=19.8x    frame=94756 fps=476 q=-0.0 size=N/A time=01:05:52.11 bitrate=N/A speed=19.8x    frame=95029 fps=476 q=-0.0 size=N/A time=01:06:03.50 bitrate=N/A speed=19.9x    frame=95265 fps=476 q=-0.0 size=N/A time=01:06:13.34 bitrate=N/A speed=19.9x    frame=95504 fps=476 q=-0.0 size=N/A time=01:06:23.31 bitrate=N/A speed=19.8x    frame=95726 fps=476 q=-0.0 size=N/A time=01:06:32.57 bitrate=N/A speed=19.8x    frame=95885 fps=475 q=-0.0 size=N/A time=01:06:39.20 bitrate=N/A speed=19.8x    frame=96033 fps=475 q=-0.0 size=N/A time=01:06:45.37 bitrate=N/A speed=19.8x    frame=96198 fps=474 q=-0.0 size=N/A time=01:06:52.25 bitrate=N/A speed=19.8x    frame=96347 fps=474 q=-0.0 size=N/A time=01:06:58.47 bitrate=N/A speed=19.8x    frame=96472 fps=473 q=-0.0 size=N/A time=01:07:03.68 bitrate=N/A speed=19.7x    frame=96627 fps=473 q=-0.0 size=N/A time=01:07:10.15 bitrate=N/A speed=19.7x    frame=96791 fps=473 q=-0.0 size=N/A time=01:07:16.99 bitrate=N/A speed=19.7x    frame=96948 fps=472 q=-0.0 size=N/A time=01:07:23.53 bitrate=N/A speed=19.7x    frame=97101 fps=472 q=-0.0 size=N/A time=01:07:29.92 bitrate=N/A speed=19.7x    frame=97261 fps=471 q=-0.0 size=N/A time=01:07:36.59 bitrate=N/A speed=19.7x    frame=97402 fps=471 q=-0.0 size=N/A time=01:07:42.47 bitrate=N/A speed=19.6x    frame=97558 fps=470 q=-0.0 size=N/A time=01:07:48.98 bitrate=N/A speed=19.6x    frame=97711 fps=470 q=-0.0 size=N/A time=01:07:55.36 bitrate=N/A speed=19.6x    frame=97863 fps=470 q=-0.0 size=N/A time=01:08:01.70 bitrate=N/A speed=19.6x    frame=98031 fps=469 q=-0.0 size=N/A time=01:08:08.70 bitrate=N/A speed=19.6x    frame=98205 fps=469 q=-0.0 size=N/A time=01:08:15.96 bitrate=N/A speed=19.6x    frame=98344 fps=468 q=-0.0 size=N/A time=01:08:21.76 bitrate=N/A speed=19.5x    frame=98499 fps=468 q=-0.0 size=N/A time=01:08:28.22 bitrate=N/A speed=19.5x    frame=98646 fps=468 q=-0.0 size=N/A time=01:08:34.36 bitrate=N/A speed=19.5x    frame=98851 fps=467 q=-0.0 size=N/A time=01:08:42.91 bitrate=N/A speed=19.5x    frame=99095 fps=467 q=-0.0 size=N/A time=01:08:53.08 bitrate=N/A speed=19.5x    frame=99365 fps=468 q=-0.0 size=N/A time=01:09:04.34 bitrate=N/A speed=19.5x    frame=99603 fps=468 q=-0.0 size=N/A time=01:09:14.27 bitrate=N/A speed=19.5x    frame=99884 fps=468 q=-0.0 size=N/A time=01:09:25.99 bitrate=N/A speed=19.5x    frame=100142 fps=468 q=-0.0 size=N/A time=01:09:36.75 bitrate=N/A speed=19.5x    frame=100386 fps=468 q=-0.0 size=N/A time=01:09:46.93 bitrate=N/A speed=19.5x    frame=100625 fps=468 q=-0.0 size=N/A time=01:09:56.90 bitrate=N/A speed=19.5x    frame=100835 fps=468 q=-0.0 size=N/A time=01:10:05.65 bitrate=N/A speed=19.5x    frame=101060 fps=468 q=-0.0 size=N/A time=01:10:15.04 bitrate=N/A speed=19.5x    frame=101333 fps=468 q=-0.0 size=N/A time=01:10:26.43 bitrate=N/A speed=19.5x    frame=101548 fps=468 q=-0.0 size=N/A time=01:10:35.39 bitrate=N/A speed=19.5x    frame=101730 fps=467 q=-0.0 size=N/A time=01:10:42.98 bitrate=N/A speed=19.5x    frame=101864 fps=467 q=-0.0 size=N/A time=01:10:48.57 bitrate=N/A speed=19.5x    frame=102046 fps=467 q=-0.0 size=N/A time=01:10:56.16 bitrate=N/A speed=19.5x    frame=102297 fps=467 q=-0.0 size=N/A time=01:11:06.63 bitrate=N/A speed=19.5x    frame=102543 fps=467 q=-0.0 size=N/A time=01:11:16.89 bitrate=N/A speed=19.5x    frame=102760 fps=467 q=-0.0 size=N/A time=01:11:25.94 bitrate=N/A speed=19.5x    frame=102959 fps=466 q=-0.0 size=N/A time=01:11:34.24 bitrate=N/A speed=19.4x    frame=103151 fps=466 q=-0.0 size=N/A time=01:11:42.25 bitrate=N/A speed=19.4x    frame=103388 fps=466 q=-0.0 size=N/A time=01:11:52.14 bitrate=N/A speed=19.4x    frame=103614 fps=466 q=-0.0 size=N/A time=01:12:01.56 bitrate=N/A speed=19.4x    frame=103852 fps=466 q=-0.0 size=N/A time=01:12:11.49 bitrate=N/A speed=19.4x    frame=104068 fps=466 q=-0.0 size=N/A time=01:12:20.50 bitrate=N/A speed=19.4x    frame=104277 fps=466 q=-0.0 size=N/A time=01:12:29.21 bitrate=N/A speed=19.4x    frame=104493 fps=466 q=-0.0 size=N/A time=01:12:38.22 bitrate=N/A speed=19.4x    frame=104706 fps=466 q=-0.0 size=N/A time=01:12:47.11 bitrate=N/A speed=19.4x    frame=104952 fps=466 q=-0.0 size=N/A time=01:12:57.37 bitrate=N/A speed=19.4x    frame=105180 fps=465 q=-0.0 size=N/A time=01:13:06.88 bitrate=N/A speed=19.4x    frame=105417 fps=465 q=-0.0 size=N/A time=01:13:16.76 bitrate=N/A speed=19.4x    frame=105641 fps=465 q=-0.0 size=N/A time=01:13:26.11 bitrate=N/A speed=19.4x    frame=105835 fps=465 q=-0.0 size=N/A time=01:13:34.20 bitrate=N/A speed=19.4x    frame=106061 fps=465 q=-0.0 size=N/A time=01:13:43.62 bitrate=N/A speed=19.4x    frame=106307 fps=465 q=-0.0 size=N/A time=01:13:53.88 bitrate=N/A speed=19.4x    frame=106510 fps=465 q=-0.0 size=N/A time=01:14:02.35 bitrate=N/A speed=19.4x    frame=106724 fps=465 q=-0.0 size=N/A time=01:14:11.28 bitrate=N/A speed=19.4x    frame=106886 fps=465 q=-0.0 size=N/A time=01:14:18.03 bitrate=N/A speed=19.4x    frame=107098 fps=464 q=-0.0 size=N/A time=01:14:26.87 bitrate=N/A speed=19.4x    frame=107333 fps=464 q=-0.0 size=N/A time=01:14:36.68 bitrate=N/A speed=19.4x    frame=107573 fps=464 q=-0.0 size=N/A time=01:14:46.69 bitrate=N/A speed=19.4x    frame=107792 fps=464 q=-0.0 size=N/A time=01:14:55.82 bitrate=N/A speed=19.4x    frame=108066 fps=464 q=-0.0 size=N/A time=01:15:07.25 bitrate=N/A speed=19.4x    frame=108298 fps=464 q=-0.0 size=N/A time=01:15:16.92 bitrate=N/A speed=19.4x    frame=108539 fps=464 q=-0.0 size=N/A time=01:15:26.98 bitrate=N/A speed=19.4x    frame=108810 fps=465 q=-0.0 size=N/A time=01:15:38.28 bitrate=N/A speed=19.4x    frame=109023 fps=464 q=-0.0 size=N/A time=01:15:47.16 bitrate=N/A speed=19.4x    frame=109244 fps=464 q=-0.0 size=N/A time=01:15:56.38 bitrate=N/A speed=19.4x    frame=109482 fps=464 q=-0.0 size=N/A time=01:16:06.31 bitrate=N/A speed=19.4x    frame=109690 fps=464 q=-0.0 size=N/A time=01:16:14.98 bitrate=N/A speed=19.4x    frame=109877 fps=464 q=-0.0 size=N/A time=01:16:22.78 bitrate=N/A speed=19.4x    frame=110122 fps=464 q=-0.0 size=N/A time=01:16:33.00 bitrate=N/A speed=19.4x    frame=110377 fps=464 q=-0.0 size=N/A time=01:16:43.64 bitrate=N/A speed=19.4x    frame=110634 fps=464 q=-0.0 size=N/A time=01:16:54.35 bitrate=N/A speed=19.4x    frame=110881 fps=464 q=-0.0 size=N/A time=01:17:04.66 bitrate=N/A speed=19.4x    frame=111106 fps=464 q=-0.0 size=N/A time=01:17:14.04 bitrate=N/A speed=19.4x    frame=111310 fps=464 q=-0.0 size=N/A time=01:17:22.55 bitrate=N/A speed=19.4x    frame=111525 fps=464 q=-0.0 size=N/A time=01:17:31.52 bitrate=N/A speed=19.3x    frame=111784 fps=464 q=-0.0 size=N/A time=01:17:42.32 bitrate=N/A speed=19.4x    frame=112055 fps=464 q=-0.0 size=N/A time=01:17:53.62 bitrate=N/A speed=19.4x    frame=112294 fps=464 q=-0.0 size=N/A time=01:18:03.59 bitrate=N/A speed=19.4x    frame=112556 fps=464 q=-0.0 size=N/A time=01:18:14.52 bitrate=N/A speed=19.4x    frame=112747 fps=464 q=-0.0 size=N/A time=01:18:22.48 bitrate=N/A speed=19.4x    frame=112974 fps=464 q=-0.0 size=N/A time=01:18:31.95 bitrate=N/A speed=19.4x    frame=113206 fps=464 q=-0.0 size=N/A time=01:18:41.63 bitrate=N/A speed=19.4x    frame=113413 fps=464 q=-0.0 size=N/A time=01:18:50.26 bitrate=N/A speed=19.3x    frame=113622 fps=464 q=-0.0 size=N/A time=01:18:58.98 bitrate=N/A speed=19.3x    frame=113830 fps=464 q=-0.0 size=N/A time=01:19:07.65 bitrate=N/A speed=19.3x    frame=114045 fps=463 q=-0.0 size=N/A time=01:19:16.62 bitrate=N/A speed=19.3x    frame=114281 fps=463 q=-0.0 size=N/A time=01:19:26.47 bitrate=N/A speed=19.3x    frame=114514 fps=463 q=-0.0 size=N/A time=01:19:36.18 bitrate=N/A speed=19.3x    frame=114726 fps=463 q=-0.0 size=N/A time=01:19:45.03 bitrate=N/A speed=19.3x    frame=114940 fps=463 q=-0.0 size=N/A time=01:19:53.95 bitrate=N/A speed=19.3x    frame=115153 fps=463 q=-0.0 size=N/A time=01:20:02.83 bitrate=N/A speed=19.3x    frame=115348 fps=463 q=-0.0 size=N/A time=01:20:10.97 bitrate=N/A speed=19.3x    frame=115545 fps=463 q=-0.0 size=N/A time=01:20:19.18 bitrate=N/A speed=19.3x    frame=115816 fps=463 q=-0.0 size=N/A time=01:20:30.49 bitrate=N/A speed=19.3x    frame=116060 fps=463 q=-0.0 size=N/A time=01:20:40.66 bitrate=N/A speed=19.3x    frame=116331 fps=463 q=-0.0 size=N/A time=01:20:51.97 bitrate=N/A speed=19.3x    frame=116614 fps=463 q=-0.0 size=N/A time=01:21:03.77 bitrate=N/A speed=19.3x    frame=116850 fps=463 q=-0.0 size=N/A time=01:21:13.61 bitrate=N/A speed=19.3x    frame=117089 fps=463 q=-0.0 size=N/A time=01:21:23.58 bitrate=N/A speed=19.3x    frame=117317 fps=463 q=-0.0 size=N/A time=01:21:33.09 bitrate=N/A speed=19.3x    frame=117581 fps=463 q=-0.0 size=N/A time=01:21:44.10 bitrate=N/A speed=19.3x    frame=117822 fps=463 q=-0.0 size=N/A time=01:21:54.15 bitrate=N/A speed=19.3x    frame=118088 fps=463 q=-0.0 size=N/A time=01:22:05.25 bitrate=N/A speed=19.3x    frame=118362 fps=464 q=-0.0 size=N/A time=01:22:16.68 bitrate=N/A speed=19.3x    frame=118606 fps=464 q=-0.0 size=N/A time=01:22:26.85 bitrate=N/A speed=19.3x    frame=118865 fps=464 q=-0.0 size=N/A time=01:22:37.66 bitrate=N/A speed=19.3x    frame=119108 fps=464 q=-0.0 size=N/A time=01:22:47.79 bitrate=N/A speed=19.3x    frame=119373 fps=464 q=-0.0 size=N/A time=01:22:58.84 bitrate=N/A speed=19.3x    frame=119624 fps=464 q=-0.0 size=N/A time=01:23:09.31 bitrate=N/A speed=19.3x    frame=119859 fps=464 q=-0.0 size=N/A time=01:23:19.11 bitrate=N/A speed=19.3x    frame=120104 fps=464 q=-0.0 size=N/A time=01:23:29.33 bitrate=N/A speed=19.3x    frame=120299 fps=464 q=-0.0 size=N/A time=01:23:37.47 bitrate=N/A speed=19.3x    frame=120521 fps=464 q=-0.0 size=N/A time=01:23:46.73 bitrate=N/A speed=19.3x    frame=120692 fps=463 q=-0.0 size=N/A time=01:23:53.86 bitrate=N/A speed=19.3x    frame=120866 fps=463 q=-0.0 size=N/A time=01:24:01.11 bitrate=N/A speed=19.3x    frame=121026 fps=463 q=-0.0 size=N/A time=01:24:07.79 bitrate=N/A speed=19.3x    frame=121235 fps=463 q=-0.0 size=N/A time=01:24:16.50 bitrate=N/A speed=19.3x    frame=121431 fps=462 q=-0.0 size=N/A time=01:24:24.68 bitrate=N/A speed=19.3x    frame=121632 fps=462 q=-0.0 size=N/A time=01:24:33.06 bitrate=N/A speed=19.3x    frame=121857 fps=462 q=-0.0 size=N/A time=01:24:42.45 bitrate=N/A speed=19.3x    frame=122096 fps=462 q=-0.0 size=N/A time=01:24:52.42 bitrate=N/A speed=19.3x    frame=122301 fps=462 q=-0.0 size=N/A time=01:25:00.97 bitrate=N/A speed=19.3x    frame=122505 fps=462 q=-0.0 size=N/A time=01:25:09.47 bitrate=N/A speed=19.3x    frame=122676 fps=462 q=-0.0 size=N/A time=01:25:16.61 bitrate=N/A speed=19.3x    frame=122901 fps=462 q=-0.0 size=N/A time=01:25:25.99 bitrate=N/A speed=19.3x    frame=123160 fps=462 q=-0.0 size=N/A time=01:25:36.79 bitrate=N/A speed=19.3x    frame=123349 fps=462 q=-0.0 size=N/A time=01:25:44.68 bitrate=N/A speed=19.3x    frame=123546 fps=461 q=-0.0 size=N/A time=01:25:52.89 bitrate=N/A speed=19.2x    frame=123767 fps=461 q=-0.0 size=N/A time=01:26:02.11 bitrate=N/A speed=19.2x    frame=124010 fps=461 q=-0.0 size=N/A time=01:26:12.25 bitrate=N/A speed=19.2x    frame=124215 fps=461 q=-0.0 size=N/A time=01:26:20.80 bitrate=N/A speed=19.2x    frame=124427 fps=461 q=-0.0 size=N/A time=01:26:29.64 bitrate=N/A speed=19.2x    frame=124659 fps=461 q=-0.0 size=N/A time=01:26:39.31 bitrate=N/A speed=19.2x    frame=124880 fps=461 q=-0.0 size=N/A time=01:26:48.53 bitrate=N/A speed=19.2x    frame=125115 fps=461 q=-0.0 size=N/A time=01:26:58.33 bitrate=N/A speed=19.2x    frame=125347 fps=461 q=-0.0 size=N/A time=01:27:08.01 bitrate=N/A speed=19.2x    frame=125504 fps=461 q=-0.0 size=N/A time=01:27:14.56 bitrate=N/A speed=19.2x    frame=125619 fps=460 q=-0.0 size=N/A time=01:27:19.35 bitrate=N/A speed=19.2x    frame=125807 fps=460 q=-0.0 size=N/A time=01:27:27.20 bitrate=N/A speed=19.2x    frame=125994 fps=460 q=-0.0 size=N/A time=01:27:34.99 bitrate=N/A speed=19.2x    frame=126241 fps=460 q=-0.0 size=N/A time=01:27:45.30 bitrate=N/A speed=19.2x    frame=126492 fps=460 q=-0.0 size=N/A time=01:27:55.77 bitrate=N/A speed=19.2x    frame=126758 fps=460 q=-0.0 size=N/A time=01:28:06.86 bitrate=N/A speed=19.2x    frame=126990 fps=460 q=-0.0 size=N/A time=01:28:16.54 bitrate=N/A speed=19.2x    frame=127256 fps=460 q=-0.0 size=N/A time=01:28:27.63 bitrate=N/A speed=19.2x    frame=127498 fps=460 q=-0.0 size=N/A time=01:28:37.72 bitrate=N/A speed=19.2x    frame=127685 fps=460 q=-0.0 size=N/A time=01:28:45.52 bitrate=N/A speed=19.2x    frame=127901 fps=460 q=-0.0 size=N/A time=01:28:54.53 bitrate=N/A speed=19.2x    frame=128096 fps=460 q=-0.0 size=N/A time=01:29:02.67 bitrate=N/A speed=19.2x    frame=128280 fps=460 q=-0.0 size=N/A time=01:29:10.34 bitrate=N/A speed=19.2x    frame=128491 fps=460 q=-0.0 size=N/A time=01:29:19.14 bitrate=N/A speed=19.2x    frame=128710 fps=459 q=-0.0 size=N/A time=01:29:28.27 bitrate=N/A speed=19.2x    frame=128879 fps=459 q=-0.0 size=N/A time=01:29:35.32 bitrate=N/A speed=19.2x    frame=129015 fps=459 q=-0.0 size=N/A time=01:29:41.00 bitrate=N/A speed=19.1x    frame=129163 fps=459 q=-0.0 size=N/A time=01:29:47.17 bitrate=N/A speed=19.1x    frame=129324 fps=458 q=-0.0 size=N/A time=01:29:53.88 bitrate=N/A speed=19.1x    frame=129499 fps=458 q=-0.0 size=N/A time=01:30:01.18 bitrate=N/A speed=19.1x    frame=129698 fps=458 q=-0.0 size=N/A time=01:30:09.48 bitrate=N/A speed=19.1x    frame=129914 fps=458 q=-0.0 size=N/A time=01:30:18.49 bitrate=N/A speed=19.1x    frame=130125 fps=458 q=-0.0 size=N/A time=01:30:27.29 bitrate=N/A speed=19.1x    frame=130318 fps=458 q=-0.0 size=N/A time=01:30:35.34 bitrate=N/A speed=19.1x    frame=130527 fps=458 q=-0.0 size=N/A time=01:30:44.06 bitrate=N/A speed=19.1x    frame=130726 fps=457 q=-0.0 size=N/A time=01:30:52.36 bitrate=N/A speed=19.1x    frame=130916 fps=457 q=-0.0 size=N/A time=01:31:00.28 bitrate=N/A speed=19.1x    frame=131126 fps=457 q=-0.0 size=N/A time=01:31:09.04 bitrate=N/A speed=19.1x    frame=131375 fps=457 q=-0.0 size=N/A time=01:31:19.43 bitrate=N/A speed=19.1x    frame=131623 fps=457 q=-0.0 size=N/A time=01:31:29.77 bitrate=N/A speed=19.1x    frame=131885 fps=457 q=-0.0 size=N/A time=01:31:40.70 bitrate=N/A speed=19.1x    frame=132170 fps=457 q=-0.0 size=N/A time=01:31:52.59 bitrate=N/A speed=19.1x    frame=132411 fps=458 q=-0.0 size=N/A time=01:32:02.64 bitrate=N/A speed=19.1x    frame=132627 fps=457 q=-0.0 size=N/A time=01:32:11.65 bitrate=N/A speed=19.1x    frame=132855 fps=457 q=-0.0 size=N/A time=01:32:21.16 bitrate=N/A speed=19.1x    frame=133068 fps=457 q=-0.0 size=N/A time=01:32:30.04 bitrate=N/A speed=19.1x    frame=133303 fps=457 q=-0.0 size=N/A time=01:32:39.84 bitrate=N/A speed=19.1x    frame=133521 fps=457 q=-0.0 size=N/A time=01:32:48.93 bitrate=N/A speed=19.1x    frame=133729 fps=457 q=-0.0 size=N/A time=01:32:57.61 bitrate=N/A speed=19.1x    frame=133949 fps=457 q=-0.0 size=N/A time=01:33:06.78 bitrate=N/A speed=19.1x    frame=134168 fps=457 q=-0.0 size=N/A time=01:33:15.92 bitrate=N/A speed=19.1x    frame=134404 fps=457 q=-0.0 size=N/A time=01:33:25.76 bitrate=N/A speed=19.1x    frame=134625 fps=457 q=-0.0 size=N/A time=01:33:34.98 bitrate=N/A speed=19.1x    frame=134862 fps=457 q=-0.0 size=N/A time=01:33:44.86 bitrate=N/A speed=19.1x    frame=135081 fps=457 q=-0.0 size=N/A time=01:33:54.00 bitrate=N/A speed=19.1x    frame=135284 fps=457 q=-0.0 size=N/A time=01:34:02.47 bitrate=N/A speed=19.1x    frame=135513 fps=457 q=-0.0 size=N/A time=01:34:12.02 bitrate=N/A speed=19.1x    frame=135743 fps=457 q=-0.0 size=N/A time=01:34:21.61 bitrate=N/A speed=19.1x    frame=135964 fps=457 q=-0.0 size=N/A time=01:34:30.83 bitrate=N/A speed=19.1x    frame=136176 fps=457 q=-0.0 size=N/A time=01:34:39.67 bitrate=N/A speed=  19x    frame=136383 fps=457 q=-0.0 size=N/A time=01:34:48.30 bitrate=N/A speed=  19x    frame=136600 fps=457 q=-0.0 size=N/A time=01:34:57.35 bitrate=N/A speed=  19x    frame=136824 fps=456 q=-0.0 size=N/A time=01:35:06.70 bitrate=N/A speed=  19x    frame=137018 fps=456 q=-0.0 size=N/A time=01:35:14.79 bitrate=N/A speed=  19x    frame=137217 fps=456 q=-0.0 size=N/A time=01:35:23.09 bitrate=N/A speed=  19x    frame=137420 fps=456 q=-0.0 size=N/A time=01:35:31.55 bitrate=N/A speed=  19x    frame=137632 fps=456 q=-0.0 size=N/A time=01:35:40.40 bitrate=N/A speed=  19x    frame=137823 fps=456 q=-0.0 size=N/A time=01:35:48.36 bitrate=N/A speed=  19x    frame=138024 fps=456 q=-0.0 size=N/A time=01:35:56.75 bitrate=N/A speed=  19x    frame=138222 fps=456 q=-0.0 size=N/A time=01:36:05.00 bitrate=N/A speed=  19x    frame=138426 fps=456 q=-0.0 size=N/A time=01:36:13.51 bitrate=N/A speed=  19x    frame=138637 fps=455 q=-0.0 size=N/A time=01:36:22.31 bitrate=N/A speed=  19x    frame=138840 fps=455 q=-0.0 size=N/A time=01:36:30.78 bitrate=N/A speed=  19x    frame=139057 fps=455 q=-0.0 size=N/A time=01:36:39.83 bitrate=N/A speed=  19x    frame=139303 fps=455 q=-0.0 size=N/A time=01:36:50.09 bitrate=N/A speed=  19x    frame=139549 fps=455 q=-0.0 size=N/A time=01:37:00.35 bitrate=N/A speed=  19x    frame=139791 fps=455 q=-0.0 size=N/A time=01:37:10.44 bitrate=N/A speed=  19x    frame=140013 fps=455 q=-0.0 size=N/A time=01:37:19.70 bitrate=N/A speed=  19x    frame=140227 fps=455 q=-0.0 size=N/A time=01:37:28.63 bitrate=N/A speed=  19x    frame=140458 fps=455 q=-0.0 size=N/A time=01:37:38.26 bitrate=N/A speed=  19x    frame=140683 fps=455 q=-0.0 size=N/A time=01:37:47.65 bitrate=N/A speed=  19x    frame=140923 fps=455 q=-0.0 size=N/A time=01:37:57.66 bitrate=N/A speed=  19x    frame=141163 fps=455 q=-0.0 size=N/A time=01:38:07.67 bitrate=N/A speed=  19x    frame=141366 fps=455 q=-0.0 size=N/A time=01:38:16.14 bitrate=N/A speed=  19x    frame=141589 fps=455 q=-0.0 size=N/A time=01:38:25.44 bitrate=N/A speed=  19x    frame=141783 fps=455 q=-0.0 size=N/A time=01:38:33.53 bitrate=N/A speed=  19x    frame=142005 fps=455 q=-0.0 size=N/A time=01:38:42.79 bitrate=N/A speed=  19x    frame=142282 fps=455 q=-0.0 size=N/A time=01:38:54.34 bitrate=N/A speed=  19x    frame=142560 fps=455 q=-0.0 size=N/A time=01:39:05.94 bitrate=N/A speed=  19x    frame=142795 fps=455 q=-0.0 size=N/A time=01:39:15.74 bitrate=N/A speed=  19x    frame=143060 fps=455 q=-0.0 size=N/A time=01:39:26.79 bitrate=N/A speed=  19x    frame=143333 fps=455 q=-0.0 size=N/A time=01:39:38.18 bitrate=N/A speed=  19x    frame=143609 fps=456 q=-0.0 size=N/A time=01:39:49.69 bitrate=N/A speed=  19x    frame=143910 fps=456 q=-0.0 size=N/A time=01:40:02.24 bitrate=N/A speed=  19x    frame=144128 fps=456 q=-0.0 size=N/A time=01:40:11.33 bitrate=N/A speed=  19x    frame=144322 fps=456 q=-0.0 size=N/A time=01:40:19.43 bitrate=N/A speed=  19x    frame=144534 fps=456 q=-0.0 size=N/A time=01:40:28.27 bitrate=N/A speed=  19x    frame=144738 fps=455 q=-0.0 size=N/A time=01:40:36.78 bitrate=N/A speed=  19x    frame=144951 fps=455 q=-0.0 size=N/A time=01:40:45.66 bitrate=N/A speed=  19x    frame=145145 fps=455 q=-0.0 size=N/A time=01:40:53.75 bitrate=N/A speed=  19x    frame=145362 fps=455 q=-0.0 size=N/A time=01:41:02.80 bitrate=N/A speed=  19x    frame=145581 fps=455 q=-0.0 size=N/A time=01:41:11.94 bitrate=N/A speed=  19x    frame=145802 fps=455 q=-0.0 size=N/A time=01:41:21.15 bitrate=N/A speed=  19x    frame=145993 fps=455 q=-0.0 size=N/A time=01:41:29.12 bitrate=N/A speed=  19x    frame=146218 fps=455 q=-0.0 size=N/A time=01:41:38.50 bitrate=N/A speed=  19x    frame=146423 fps=455 q=-0.0 size=N/A time=01:41:47.05 bitrate=N/A speed=  19x    frame=146640 fps=455 q=-0.0 size=N/A time=01:41:56.11 bitrate=N/A speed=  19x    frame=146873 fps=455 q=-0.0 size=N/A time=01:42:05.82 bitrate=N/A speed=  19x    frame=147131 fps=455 q=-0.0 size=N/A time=01:42:16.58 bitrate=N/A speed=  19x    frame=147365 fps=455 q=-0.0 size=N/A time=01:42:26.34 bitrate=N/A speed=  19x    frame=147609 fps=455 q=-0.0 size=N/A time=01:42:36.52 bitrate=N/A speed=  19x    frame=147875 fps=455 q=-0.0 size=N/A time=01:42:47.61 bitrate=N/A speed=  19x    frame=148146 fps=455 q=-0.0 size=N/A time=01:42:58.92 bitrate=N/A speed=  19x    frame=148404 fps=455 q=-0.0 size=N/A time=01:43:09.68 bitrate=N/A speed=  19x    frame=148662 fps=455 q=-0.0 size=N/A time=01:43:20.44 bitrate=N/A speed=  19x    frame=148932 fps=455 q=-0.0 size=N/A time=01:43:31.70 bitrate=N/A speed=  19x    frame=149163 fps=455 q=-0.0 size=N/A time=01:43:41.34 bitrate=N/A speed=  19x    frame=149388 fps=455 q=-0.0 size=N/A time=01:43:50.72 bitrate=N/A speed=  19x    frame=149597 fps=455 q=-0.0 size=N/A time=01:43:59.44 bitrate=N/A speed=  19x    frame=149798 fps=455 q=-0.0 size=N/A time=01:44:07.82 bitrate=N/A speed=  19x    frame=150048 fps=455 q=-0.0 size=N/A time=01:44:18.25 bitrate=N/A speed=  19x    frame=150283 fps=455 q=-0.0 size=N/A time=01:44:28.05 bitrate=N/A speed=  19x    frame=150531 fps=455 q=-0.0 size=N/A time=01:44:38.39 bitrate=N/A speed=  19x    frame=150765 fps=455 q=-0.0 size=N/A time=01:44:48.15 bitrate=N/A speed=  19x    frame=150992 fps=455 q=-0.0 size=N/A time=01:44:57.62 bitrate=N/A speed=  19x    frame=151246 fps=455 q=-0.0 size=N/A time=01:45:08.21 bitrate=N/A speed=  19x    frame=151484 fps=455 q=-0.0 size=N/A time=01:45:18.14 bitrate=N/A speed=  19x    frame=151718 fps=455 q=-0.0 size=N/A time=01:45:27.90 bitrate=N/A speed=  19x    frame=151959 fps=455 q=-0.0 size=N/A time=01:45:37.95 bitrate=N/A speed=  19x    frame=152194 fps=455 q=-0.0 size=N/A time=01:45:47.75 bitrate=N/A speed=  19x    frame=152426 fps=455 q=-0.0 size=N/A time=01:45:57.43 bitrate=N/A speed=  19x    frame=152654 fps=455 q=-0.0 size=N/A time=01:46:06.94 bitrate=N/A speed=  19x    frame=152923 fps=455 q=-0.0 size=N/A time=01:46:18.16 bitrate=N/A speed=  19x    frame=153191 fps=455 q=-0.0 size=N/A time=01:46:29.34 bitrate=N/A speed=  19x    frame=153437 fps=455 q=-0.0 size=N/A time=01:46:39.60 bitrate=N/A speed=  19x    frame=153677 fps=456 q=-0.0 size=N/A time=01:46:49.61 bitrate=N/A speed=  19x    frame=153923 fps=456 q=-0.0 size=N/A time=01:46:59.87 bitrate=N/A speed=  19x    frame=154204 fps=456 q=-0.0 size=N/A time=01:47:11.59 bitrate=N/A speed=  19x    frame=154466 fps=456 q=-0.0 size=N/A time=01:47:22.51 bitrate=N/A speed=  19x    frame=154732 fps=456 q=-0.0 size=N/A time=01:47:33.61 bitrate=N/A speed=  19x    frame=154982 fps=456 q=-0.0 size=N/A time=01:47:44.04 bitrate=N/A speed=  19x    frame=155232 fps=456 q=-0.0 size=N/A time=01:47:54.46 bitrate=N/A speed=  19x    frame=155472 fps=456 q=-0.0 size=N/A time=01:48:04.47 bitrate=N/A speed=  19x    frame=155736 fps=456 q=-0.0 size=N/A time=01:48:15.48 bitrate=N/A speed=  19x    frame=155975 fps=456 q=-0.0 size=N/A time=01:48:25.45 bitrate=N/A speed=  19x    frame=156216 fps=456 q=-0.0 size=N/A time=01:48:35.50 bitrate=N/A speed=  19x    frame=156474 fps=456 q=-0.0 size=N/A time=01:48:46.26 bitrate=N/A speed=  19x    frame=156743 fps=456 q=-0.0 size=N/A time=01:48:57.48 bitrate=N/A speed=  19x    frame=156996 fps=456 q=-0.0 size=N/A time=01:49:08.04 bitrate=N/A speed=  19x    frame=157283 fps=456 q=-0.0 size=N/A time=01:49:20.01 bitrate=N/A speed=  19x    frame=157560 fps=457 q=-0.0 size=N/A time=01:49:31.56 bitrate=N/A speed=  19x    frame=157863 fps=457 q=-0.0 size=N/A time=01:49:44.20 bitrate=N/A speed=19.1x    frame=158078 fps=457 q=-0.0 size=N/A time=01:49:53.16 bitrate=N/A speed=  19x    frame=158255 fps=457 q=-0.0 size=N/A time=01:50:00.55 bitrate=N/A speed=  19x    [Parsed_ssim_10 @ 000002301a865e40] SSIM Y:0.994187 (22.355819) U:0.992509 (21.254490) V:0.992177 (21.066265) All:0.993572 (21.919337)
[out#0/null @ 000002301abb0480] video:68082KiB audio:1239116KiB subtitle:0KiB other streams:0KiB global headers:0KiB muxing overhead: unknown
frame=158445 fps=457 q=-0.0 Lsize=N/A time=01:50:08.47 bitrate=N/A speed=  19x    
